<svg xmlns="http://www.w3.org/2000/svg" fill="#b30838" viewBox="0 0 351.6 298.8">
  <path d="M131.8 86.4v36.3H69.5l62.2-74.4 14.2 11.4 30-38.3 50.9 57.4 12.5-11.3 49.5 55.2h-71.3V83.9h-15.8v52.6H320l-79.8-91.1L226.8 57l-52-57-29.6 38-14-11.4L35 136.5h112.3v-50h-15.6M180 68h15.2v68.4H180z"/>
  <path d="M156.2 57h15.6v79.5h-15.6zM0 151.5h22.5c18.5 0 28.9 8 29.6 29.3v26c-.7 21.3-11 29.3-29.6 29.3H0v-84.6M16.2 222h5.6c9 0 14-4.2 14-16.9v-22.3c0-12-4-16.9-14-16.9h-5.6v56zm44.3 14.3v-84.7h44.3v14.3H76.7v19.5H98v14.3H76.7v22.2H106v14.4H60.5m55 0v-84.7h17.7l22.5 50.2h.3v-50.2h14.7v84.7h-15.4l-24.8-54.7h-.2v54.7h-14.8m60.6-84.7h16L207 212h.2l14.8-60.5h15.8l-21.6 84.6h-18.4l-21.7-84.6m66.1 84.7v-84.7h44.4v14.3h-28.2v19.5H280v14.3h-21.5v22.2h29.3v14.4h-45.5m92 0-14-34.5h-7.7v34.5h-16.2v-84.7h23.4c19.5 0 28.8 9.4 28.8 25.3 0 10.6-3.8 18.2-12.8 21.6l16 37.8h-17.4m-21.8-47.9h8.3c7.2 0 11.5-3.5 11.5-11.7S328 165 320.8 165h-8.3v23.5zM41.3 262.8h-5.5v-5h16.8v5H47V291h-5.7v-28.2M55 291v-33.2h5.1v10.8c1.9-1.7 3-2.8 6-2.8 2.7 0 4.3 2 4.3 5.2v20h-5.2v-19.2a1.6 1.6 0 0 0-1.4-1.8 1.7 1.7 0 0 0-.4 0 6 6 0 0 0-3.3 1.6V291H55m35.4-11.4H79.6v3.6c0 2.9 1 4 2.8 4s2.9-1.1 2.9-4v-.6h5.1c0 5.3-2.2 8.9-8 8.9-5.9 0-8-3.8-8-9.2V275c0-5.4 2.1-9.2 8-9.2s8 3.8 8 9.2v4.6m-5.1-4.2V274c0-2.9-1-4-2.9-4s-2.8 1.2-2.8 4v1.3zm41.8-17.6V291h-5v-26l-5.2 26H114l-5.2-26v26h-5v-33.2h7.5l4 19.4h.1l4-19.4h7.6m4.3 0h5.1v4.7h-5.1zm0 8.5h5.1V291h-5.1zm9.5-8.5h5.2V291h-5.2zm25.2 21.8h-10.8v3.6c0 2.8 1 4 2.8 4s2.9-1.2 2.9-4v-.6h5.1c0 5.3-2.2 8.9-8 8.9s-8-3.8-8-9.2V275c0-5.4 2.2-9.2 8-9.2s8 3.8 8 9.2v4.6m-5.1-4.2V274c0-2.9-1-4-2.9-4s-2.8 1.2-2.8 4v1.3zm19 15.6v-33.2h5.6v13.5h6.1v-13.5h5.7V291h-5.7v-14.7h-6V291h-5.8m22.1-33.2h5.2v4.7H202zm0 8.5h5.2V291H202zm26.6 3.8a4.6 4.6 0 0 0-.8 0 3.7 3.7 0 0 0-2.5.8 16 16 0 0 1 .5 3.9c0 7.5-2.5 10-7.8 10h-1.6a1.2 1.2 0 0 0-1 1c0 3.4 13.2-1.5 13.2 7.2 0 4.2-4 5.9-10.6 5.9-5.1 0-8.2-1.4-8.2-4a4.2 4.2 0 0 1 3.4-3.8v-.1a3.3 3.3 0 0 1-2.3-3.1c0-1.7 1.7-3.3 3-4-2.5-1.8-3.2-3.1-3.2-9 0-6.7 2.2-9 8-9a7 7 0 0 1 5.7 2.6c1.3-2 2-2.6 4.2-2.6v4.2m-4.6 23.2c0-1.3-1-1.8-4.4-1.8s-4.3.5-4.3 1.8.9 1.9 4.3 1.9 4.4-.6 4.4-1.9zm-3.3-18c0-4.2-.6-5.3-2.6-5.3-1.6 0-2.6 1-2.6 5.2s1 5.2 2.6 5.2c2 0 2.6-1 2.6-5.2zm10.5 15.7v-33.2h5.2v10.8c1.8-1.7 3-2.8 6-2.8 2.7 0 4.3 2 4.3 5.2v20h-5.2v-19.2a1.6 1.6 0 0 0-1.4-1.8 1.6 1.6 0 0 0-.4 0 6 6 0 0 0-3.3 1.6V291h-5.2m41-22.1v-2.6c0-2.8-1.2-4-2.7-4-2.3 0-3 1.2-3 3.7v16.8c0 2.5.7 3.7 3 3.7 2 0 2.7-1.2 2.7-3.3v-4h5.8v3.8c0 4.7-2.8 8.5-8.5 8.5-6 0-8.7-3.8-8.7-8.5v-17.1c0-4.7 2.7-8.5 8.7-8.5 5.7 0 8.5 4 8.5 9v2.5h-5.7m10.5-11h5.2v4.6h-5.2zm0 8.4h5.2V291h-5.2zm7.5 4.2v-4.2h2.8v-6.7h5.2v6.7h3.4v4.2h-3.4v14.3c0 1.3.5 2 1.7 2h1.7v4.4a8.6 8.6 0 0 1-2.6.3c-3.8 0-6-1.8-6-5.6v-15.4h-2.8m23.8-4.2h5.2l-6.4 26.6c-1.1 4.5-3.2 5.9-7 5.9h-2.2v-4.2h1.2c2.6 0 3.4-1.4 3.4-4a12.9 12.9 0 0 0-.5-3.3l-5.4-21h5.2l3.4 15.8 3.1-15.8"/>
</svg>
