<svg xmlns="http://www.w3.org/2000/svg" viewBox="0 0 448 512">
    <path d="m438.2 356-66.5-38.6L431 307a21.4 21.4 0 0 0 16-24.8 19.4 19.4 0 0 0-23.6-15.5L338 298l-82-42 82-42 85.5 31.2c11 2.6 21.5-4.4 23.6-15.5 2.1-11-5-22.2-16-24.8l-59.4-10.3 66.5-38.5a20.4 20.4 0 0 0 6.9-28.1 20.4 20.4 0 0 0-27.7-8L351 158.4l20.8-56.8a21.5 21.5 0 0 0-13.5-26.3 19.3 19.3 0 0 0-25.1 12.8l-15.9 89.7-72.4 42V136l69.6-58.6c7.7-8.2 7-20.9-1.5-28.3a21.4 21.4 0 0 0-29.4 1.5l-38.7 46.5V20c0-11-9.3-20-20.8-20s-20.8 9-20.8 20v77l-38.7-46.4a21.4 21.4 0 0 0-29.4-1.5c-8.5 7.4-9.2 20-1.5 28.3l69.6 58.6v83.9l-72.4-42L115 88.2a19.4 19.4 0 0 0-25.1-12.8 21.5 21.5 0 0 0-13.5 26.3l20.8 56.8-66.5-38.6c-9.6-5.5-22-1.9-27.7 8.1s-2.7 22.6 6.9 28l66.5 38.6L17 205a21.5 21.5 0 0 0-16 24.8 19.4 19.4 0 0 0 23.6 15.5L110 214l82 41.9-82 42-85.5-31.2A19.4 19.4 0 0 0 1 282.3 21.5 21.5 0 0 0 17 307l59.4 10.3-66.5 38.5C.2 361.4-3 374 2.9 384s18.1 13.6 27.7 8L97 353.6l-20.8 56.8a21.3 21.3 0 0 0 2 16.8c2.5 4.3 6.5 7.8 11.5 9.5 10.6 3.7 21.9-2 25.1-12.8l15.9-89.7 72.4-42V376l-69.6 58.6c-7.7 8.2-7 20.9 1.5 28.3a21.4 21.4 0 0 0 29.4-1.5l38.7-46.5V492c0 11 9.3 20 20.8 20s20.8-9 20.8-20v-77l38.7 46.4a21.6 21.6 0 0 0 29.4 1.5c8.5-7.4 9.2-20 1.5-28.3L244.8 376v-83.9l72.4 42 15.9 89.7a19.4 19.4 0 0 0 25.1 12.8 21.5 21.5 0 0 0 13.5-26.3l-20.9-56.8 66.6 38.6c9.6 5.5 22 1.9 27.7-8.1 5.8-10 2.7-22.6-6.9-28z"/>
</svg>